<?xml version="1.0" standalone="no"?>
<!DOCTYPE svg PUBLIC "-//W3C//DTD SVG 20010904//EN"
 "http://www.w3.org/TR/2001/REC-SVG-20010904/DTD/svg10.dtd">
<svg version="1.0" xmlns="http://www.w3.org/2000/svg"
 width="892.000000pt" height="232.000000pt" viewBox="0 0 892.000000 232.000000"
 preserveAspectRatio="xMidYMid meet">

<g transform="translate(0.000000,232.000000) scale(0.100000,-0.100000)"
fill="#000000" stroke="none">
<path d="M3969 2309 c-1511 -46 -2865 -356 -3539 -811 -214 -144 -323 -273
-376 -447 -104 -338 -52 -552 166 -682 126 -75 341 -131 512 -133 l97 -1 -26
-45 c-14 -25 -39 -65 -55 -89 -16 -24 -28 -44 -26 -46 2 -1 76 -5 165 -8 l163
-6 51 87 c80 136 37 122 378 122 403 0 498 13 644 88 280 144 283 493 8 804
-49 55 -187 161 -248 191 -24 12 -43 25 -43 31 0 6 63 116 140 246 77 130 140
240 140 243 0 4 -62 7 -137 7 l-138 -1 -129 -207 -129 -207 -181 -1 c-162 -1
-191 -3 -279 -27 -146 -39 -275 -106 -357 -186 -82 -79 -105 -132 -76 -176 10
-14 24 -29 32 -32 17 -6 44 14 44 34 0 21 51 84 105 127 36 30 49 35 60 26 10
-9 21 -8 44 4 50 26 151 46 236 46 80 -1 224 -16 233 -25 4 -4 -202 -343 -333
-545 l-61 -95 -140 1 c-116 2 -155 6 -234 28 -176 49 -257 106 -285 200 -19
62 -19 78 1 151 33 127 145 264 282 344 193 113 497 229 852 325 52 14 112 31
132 36 37 11 45 20 129 162 l28 47 -33 -6 c-28 -4 -34 -2 -39 16 -4 16 0 22
16 26 59 14 170 35 182 35 18 0 28 -32 13 -42 -7 -4 40 -8 105 -8 134 0 136
-2 92 -79 -14 -23 -25 -44 -25 -45 0 -1 68 10 151 26 420 78 943 140 1529 180
295 20 1282 17 1545 -5 967 -81 1772 -251 2510 -530 237 -90 391 -165 545
-266 108 -70 119 -79 213 -173 220 -219 158 -401 -178 -516 -33 -11 -109 -35
-170 -53 -60 -18 -129 -40 -151 -50 l-42 -17 14 45 c11 35 14 121 14 353 0
319 -3 347 -44 403 -59 81 -194 76 -252 -11 l-19 -27 -5 35 -5 35 -102 3 -103
3 0 -611 0 -610 105 0 105 0 0 189 0 189 33 -33 c60 -60 158 -68 217 -18 16
13 35 23 42 22 34 -4 49 2 46 19 -4 24 89 43 103 21 13 -21 11 -27 -13 -33
-13 -2 9 -2 47 0 231 17 442 99 549 214 312 333 -104 892 -894 1203 -152 60
-270 95 -535 161 -914 226 -1758 346 -2635 376 -321 11 -410 11 -781 -1z m609
-125 c4 -31 -16 -35 -129 -27 -84 5 -99 9 -99 23 0 9 3 20 7 24 4 3 54 5 112
4 99 -3 106 -4 109 -24z m-438 -9 l0 -25 -110 0 -110 0 0 25 0 25 110 0 110 0
0 -25z m803 19 c74 -7 77 -8 77 -32 l0 -25 -82 6 c-46 4 -98 7 -115 7 -28 0
-33 3 -33 25 0 29 14 30 153 19z m-1245 -59 c-2 -1 -51 -5 -110 -9 l-108 -6 0
24 c0 23 4 24 88 31 48 3 96 7 107 8 14 1 21 -5 23 -21 2 -13 2 -25 0 -27z
m1720 26 c28 -1 32 -4 32 -30 0 -28 0 -28 -42 -20 -24 4 -73 8 -110 9 -64 0
-68 1 -68 23 0 13 2 26 5 28 2 3 37 2 77 -2 40 -4 88 -8 106 -8z m-2150 -38
c3 -20 -2 -22 -75 -28 -143 -13 -148 -12 -151 11 -3 20 3 22 90 32 122 13 132
11 136 -15z m2532 -6 c76 -11 85 -14 88 -34 4 -27 -5 -28 -129 -12 -92 12
-103 17 -93 42 7 19 18 20 134 4z m-2970 -40 c0 -22 -5 -24 -94 -35 -124 -16
-126 -15 -126 8 0 22 10 25 110 39 107 14 110 14 110 -12z m3420 -30 c55 -10
65 -15 68 -35 4 -27 -3 -27 -113 -7 -44 8 -86 14 -92 15 -7 0 -13 12 -13 26 0
28 -3 28 150 1z m-3855 -28 c4 -11 5 -22 3 -23 -3 -3 -199 -36 -210 -36 -5 0
-8 10 -8 23 0 22 7 25 93 39 50 8 97 16 104 17 6 0 15 -8 18 -20z m4255 -50
c82 -18 100 -25 100 -40 0 -10 -3 -20 -8 -23 -4 -2 -53 5 -110 17 -94 19 -102
23 -102 44 0 28 -4 28 120 2z m439 -103 c86 -23 97 -30 82 -54 -8 -14 -15 -12
-173 29 -28 7 -38 15 -38 29 0 26 22 25 129 -4z m-5552 -11 c8 -23 4 -25 -94
-46 -48 -11 -96 -22 -105 -25 -14 -4 -18 0 -18 19 0 22 7 26 88 45 108 25 121
26 129 7z m5972 -109 c46 -14 86 -28 88 -30 7 -7 -9 -36 -21 -36 -6 0 -53 12
-103 27 -83 25 -93 30 -93 52 0 27 0 27 129 -13z m-6391 -26 c2 -10 -28 -31
-92 -62 -82 -41 -96 -45 -107 -32 -16 19 -11 24 86 73 82 42 108 47 113 21z
m6796 -116 c50 -20 92 -37 94 -38 1 -2 -1 -13 -5 -24 -8 -20 -10 -20 -108 19
-55 23 -101 42 -103 43 -6 6 11 36 20 36 6 0 52 -16 102 -36z m-7178 -92 c10
-15 0 -27 -74 -85 -77 -62 -86 -67 -100 -53 -14 14 -12 19 28 53 59 51 124
102 130 102 3 1 10 -7 16 -17z m7575 -88 c49 -25 89 -51 89 -58 -1 -36 -18
-33 -112 18 -82 44 -95 54 -87 69 6 9 12 17 15 17 3 0 46 -21 95 -46z m-6971
-79 c0 -23 -4 -25 -41 -25 -23 0 -68 -7 -102 -16 -49 -13 -62 -13 -68 -2 -12
18 -11 28 4 33 27 11 144 33 175 34 28 1 32 -2 32 -24z m344 -38 c80 -32 92
-42 78 -64 -12 -19 -202 55 -202 79 0 26 32 23 124 -15z m7004 -135 c63 -54
72 -71 50 -90 -10 -7 -34 10 -92 64 -69 63 -78 75 -66 89 15 18 12 19 108 -63z
m-8263 38 c8 -13 -97 -189 -113 -189 -36 -2 -22 45 46 146 33 51 54 64 67 43z
m1605 -137 c79 -87 86 -99 61 -113 -17 -8 -25 -3 -56 39 -19 27 -52 63 -73 79
-31 26 -35 32 -23 46 7 9 17 16 21 16 5 0 36 -30 70 -67z m-237 -16 c128 -129
157 -232 90 -315 -39 -48 -112 -98 -176 -118 -58 -19 -317 -32 -317 -17 0 5
37 72 83 148 46 77 114 193 153 257 38 65 75 118 82 118 7 0 46 -33 85 -73z
m6088 -36 c24 -19 24 -22 27 -228 2 -114 1 -222 -3 -240 -11 -59 -58 -82 -97
-46 -16 15 -18 36 -18 253 0 242 3 260 40 273 24 9 27 8 51 -12z m986 -207
c-3 -29 -15 -73 -26 -99 -18 -41 -23 -45 -40 -35 -20 10 -20 11 -1 53 12 25
20 65 20 99 0 46 3 57 18 60 26 6 35 -19 29 -78z m-8582 -60 c4 -31 13 -77 21
-102 10 -36 11 -48 1 -54 -7 -4 -16 -6 -22 -5 -16 6 -44 108 -44 165 -1 44 2
52 18 52 15 0 20 -10 26 -56z m1908 -7 c9 -24 -4 -111 -25 -159 -21 -50 -25
-53 -47 -39 -11 7 -10 18 8 65 11 31 21 77 21 101 0 37 3 45 19 45 10 0 21 -6
24 -13z m6447 -201 c0 -2 2 -11 6 -19 3 -10 -17 -25 -68 -50 -98 -49 -133 -56
-141 -28 -4 17 3 23 42 36 25 9 66 27 91 40 42 22 70 31 70 21z m-8063 -123
c57 -19 83 -33 83 -44 0 -9 -2 -18 -5 -21 -7 -6 -84 14 -156 41 -48 18 -56 25
-52 42 7 24 6 24 130 -18z m1387 -34 c-6 -11 -114 -44 -172 -54 -41 -7 -43 -6
-40 15 2 19 15 25 73 40 39 10 81 23 95 28 19 8 28 7 37 -5 7 -9 10 -20 7 -24z
m-866 -58 l4 -24 -112 6 c-62 3 -114 8 -117 11 -3 3 -3 12 1 21 5 13 23 15
113 13 105 -3 108 -4 111 -27z m432 -6 l0 -25 -110 0 -110 0 0 25 0 25 110 0
110 0 0 -25z"/>
<path d="M4730 1232 c-26 -12 -55 -36 -78 -66 l-22 -29 0 42 0 41 -105 0 -105
0 0 -610 0 -610 105 0 105 0 0 189 0 189 33 -33 c75 -75 195 -67 249 16 40 62
50 163 46 470 -3 258 -4 265 -28 314 -32 64 -78 95 -139 94 -25 0 -53 -3 -61
-7z m5 -214 c6 -5 10 -104 10 -254 0 -232 -1 -246 -19 -260 -25 -18 -47 -18
-72 0 -18 13 -19 30 -22 242 -2 126 -1 238 2 250 10 37 70 51 101 22z"/>
<path d="M5196 1225 c-62 -22 -89 -46 -121 -110 l-30 -60 0 -285 c0 -321 3
-336 68 -407 51 -55 120 -78 218 -71 119 9 185 63 214 176 13 51 16 110 13
330 -3 253 -4 269 -26 314 -39 82 -124 128 -236 128 -33 -1 -79 -7 -100 -15z
m137 -190 c9 -8 19 -45 23 -82 10 -94 -3 -432 -17 -449 -14 -17 -61 -18 -77
-2 -9 9 -12 81 -12 264 0 216 2 255 16 268 20 20 48 20 67 1z"/>
<path d="M7130 1231 c-77 -24 -125 -70 -151 -146 -20 -58 -20 -583 0 -639 36
-104 141 -163 271 -154 121 9 186 63 215 176 13 51 16 110 13 330 -3 262 -3
268 -28 317 -28 56 -86 102 -146 115 -46 11 -139 11 -174 1z m124 -196 c22
-22 28 -99 24 -316 -3 -212 -7 -229 -57 -229 -50 0 -51 6 -51 276 0 216 2 255
16 268 20 20 48 20 68 1z"/>
<path d="M2350 770 l0 -450 90 0 90 0 1 273 1 272 47 -246 c26 -135 51 -257
55 -272 6 -27 7 -27 94 -27 l87 0 49 257 c47 243 68 330 65 258 -1 -16 -1
-139 0 -272 l1 -243 90 0 90 0 0 450 0 450 -134 0 c-120 0 -135 -2 -140 -17
-3 -10 -26 -135 -51 -278 -25 -143 -49 -271 -53 -284 -5 -16 -25 71 -62 278
l-53 301 -134 0 -133 0 0 -450z"/>
<path d="M3220 770 l0 -450 105 0 105 0 0 73 c0 65 6 86 57 215 l58 143 3
-216 2 -215 105 0 105 0 0 450 0 450 -105 0 -105 0 0 -66 c0 -58 -8 -86 -57
-210 l-58 -143 -5 207 -5 207 -102 3 -103 3 0 -451z"/>
<path d="M3810 1130 l0 -90 90 0 90 0 0 -360 0 -360 100 0 100 0 0 360 0 360
90 0 90 0 0 90 0 90 -280 0 -280 0 0 -90z"/>
<path d="M5660 771 l0 -451 178 0 c182 0 237 8 284 41 60 43 92 178 68 292 -9
46 -20 67 -50 97 l-38 38 20 19 c39 34 58 92 58 181 0 118 -29 171 -115 208
-31 14 -80 18 -222 22 l-183 4 0 -451z m301 252 c9 -9 14 -40 14 -75 0 -70
-18 -91 -75 -86 l-35 3 -3 88 -3 87 44 0 c29 0 49 -6 58 -17z m16 -359 c7 -10
13 -45 13 -80 0 -79 -14 -96 -78 -92 l-45 3 -4 83 c-6 111 -4 116 54 109 29
-3 52 -12 60 -23z"/>
<path d="M6330 917 c0 -347 -7 -395 -60 -419 l-30 -13 0 -202 0 -203 85 0 85
0 0 120 0 120 170 0 170 0 0 -119 0 -119 85 -1 85 -1 0 205 0 205 -45 0 -45 0
0 365 0 365 -250 0 -250 0 0 -303z m300 -152 l0 -275 -59 0 -58 0 13 58 c9 38
14 127 14 275 l0 217 45 0 45 0 0 -275z"/>
</g>
</svg>
